<svg id="Layer_1" data-name="Layer 1" xmlns="http://www.w3.org/2000/svg" viewBox="0 0 32 32"><title>favicon</title><path d="M10.88,27.3l.51-.05v-.49c0-4.15,0-8.3,0-12.44A1.28,1.28,0,0,1,12,13.07v14.1h.48c0-.19,0-.35,0-.53,0-5.25,0-10.5,0-15.75a1.33,1.33,0,0,1,.63-1.23V28.21C9,28.51,4.9,29,1,31a4.62,4.62,0,0,1,1.52-1.36,17,17,0,0,1,4.89-1.76l1.68-.34v-.46c0-1.93,0-3.87,0-5.8a1.26,1.26,0,0,1,.64-1.17v7.33l.52,0v-.5c0-2.23,0-4.48,0-6.71A1.28,1.28,0,0,1,10.88,19Z" fill="#1c1f3e"/><path d="M20.7,27.25l.47.05V12.35c.4.34.66.58.66,1.1,0,4.49,0,9,0,13.46v.49l.49.06v-14A1.28,1.28,0,0,1,23,14.61c0,4.17,0,8.34,0,12.51,0,.35.09.48.44.54a18.2,18.2,0,0,1,5.72,1.77,14,14,0,0,1,1.72,1.29A.43.43,0,0,1,31,31a18.87,18.87,0,0,0-5.29-1.83c-1.85-.36-3.71-.62-5.61-.93V11.26a1.27,1.27,0,0,1,.62,1.13q0,7.24,0,14.49C20.68,27,20.7,27.1,20.7,27.25Z" fill="#1c1f3e"/><path d="M16.88,1a1.33,1.33,0,0,1,.65,1.17q0,12.5,0,25v.51h-.64Z" fill="#1c1f3e"/><path d="M18,2.17a1.24,1.24,0,0,1,.64,1.22c0,7.92,0,15.84,0,23.77,0,.58,0,.58-.63.49Z" fill="#1c1f3e"/><path d="M16.34,27.68H15.7v-.44c0-5.07,0-10.14,0-15.21a1.29,1.29,0,0,1,.64-1.22C16.34,16.42,16.34,22,16.34,27.68Z" fill="#1c1f3e"/><path d="M15.2,27.67h-.64v-.5c0-4.72,0-9.44,0-14.17a1.29,1.29,0,0,1,.65-1.07Z" fill="#1c1f3e"/></svg>