<?xml version="1.0" encoding="utf-8"?>
<!-- Generator: Adobe Illustrator 22.0.0, SVG Export Plug-In . SVG Version: 6.00 Build 0)  -->
<svg version="1.1" id="Layer_1" xmlns="http://www.w3.org/2000/svg" xmlns:xlink="http://www.w3.org/1999/xlink" x="0px" y="0px"
	 viewBox="0 0 32 32" style="enable-background:new 0 0 32 32;" xml:space="preserve">
<style type="text/css">
	.st0{fill:#1C1F3E;}
	.st1{fill:#B8BDD8;}
</style>
<title>favicon</title>
<rect class="st0" width="32" height="32"/>
<path class="st1" d="M10.9,27.3l0.5,0v-0.5c0-4.1,0-8.3,0-12.4c-0.1-0.5,0.2-1,0.6-1.3v14.1h0.5c0-0.2,0-0.4,0-0.5
	c0-5.3,0-10.5,0-15.8c0-0.5,0.2-1,0.6-1.2v18.5C9,28.5,4.9,29,1,31c0.4-0.6,0.9-1,1.5-1.4c1.5-0.8,3.2-1.4,4.9-1.8l1.7-0.3v-0.5
	c0-1.9,0-3.9,0-5.8c0-0.5,0.2-0.9,0.6-1.2v7.3h0.5v-0.5c0-2.2,0-4.5,0-6.7c0-0.5,0.2-1,0.6-1.2V27.3z"/>
<path class="st1" d="M20.7,27.3l0.5,0V12.4c0.4,0.3,0.7,0.6,0.7,1.1c0,4.5,0,9,0,13.5v0.5l0.5,0.1v-14c0.4,0.2,0.7,0.7,0.7,1.2
	c0,4.2,0,8.3,0,12.5c0,0.4,0.1,0.5,0.4,0.5c2,0.3,3.9,0.9,5.7,1.8c0.6,0.4,1.2,0.8,1.7,1.3C31,30.8,31,30.9,31,31
	c-1.7-0.9-3.4-1.5-5.3-1.8c-1.9-0.4-3.7-0.6-5.6-0.9v-17c0.4,0.2,0.6,0.7,0.6,1.1c0,4.8,0,9.7,0,14.5C20.7,27,20.7,27.1,20.7,27.3z"
	/>
<path class="st1" d="M16.9,1c0.4,0.2,0.7,0.7,0.6,1.2c0,8.3,0,16.7,0,25v0.5h-0.6L16.9,1z"/>
<path class="st1" d="M18,2.2c0.4,0.2,0.7,0.7,0.6,1.2c0,7.9,0,15.8,0,23.8c0,0.6,0,0.6-0.6,0.5L18,2.2z"/>
<path class="st1" d="M16.3,27.7h-0.6v-0.4c0-5.1,0-10.1,0-15.2c0-0.5,0.2-1,0.6-1.2C16.3,16.4,16.3,22,16.3,27.7z"/>
<path class="st1" d="M15.2,27.7h-0.6v-0.5c0-4.7,0-9.4,0-14.2c0-0.4,0.3-0.8,0.6-1.1L15.2,27.7z"/>
</svg>
